<svg xmlns="http://www.w3.org/2000/svg" xmlns:xlink="http://www.w3.org/1999/xlink" width="600" height="600"><g stroke-linecap="round" stroke-width="15" stroke-linejoin="round" stroke="#000000"><line x1="300" y1="60" x2="252" y2="188"></line><line x1="252" y1="188" x2="156" y2="156"></line><line x1="156" y1="156" x2="188" y2="252"></line><line x1="188" y1="252" x2="60" y2="300"></line><line x1="60" y1="300" x2="188" y2="348"></line><line x1="188" y1="348" x2="156" y2="444"></line><line x1="156" y1="444" x2="252" y2="412"></line><line x1="252" y1="412" x2="300" y2="540"></line><line x1="300" y1="540" x2="348" y2="412"></line><line x1="348" y1="412" x2="444" y2="444"></line><line x1="444" y1="444" x2="412" y2="348"></line><line x1="412" y1="348" x2="540" y2="300"></line><line x1="540" y1="300" x2="412" y2="252"></line><line x1="412" y1="252" x2="444" y2="156"></line><line x1="444" y1="156" x2="348" y2="188"></line><line x1="348" y1="188" x2="300" y2="60"></line></g></svg>